<svg xmlns="http://www.w3.org/2000/svg" width="306" height="388.386" viewBox="0 0 306 388.386"><g transform="translate(-54 -236.807)"><g transform="translate(-10 220.807)"><g transform="translate(64 16)"><path d="M247.6,404.386H186.4C118.8,404.386,64,348.742,64,280.1V140.284C64,71.644,118.8,16,186.4,16h61.2C315.2,16,370,71.644,370,140.284V280.1C370,348.742,315.2,404.386,247.6,404.386Z" transform="translate(-64 -16)" fill="#f05a4b"/></g><g transform="translate(100.06 25.71)"><path d="M112.438,73.311a3.148,3.148,0,0,1-2.077-.782,3.272,3.272,0,0,1-.339-4.564A112.079,112.079,0,0,1,195.592,28h61.2a112.083,112.083,0,0,1,85.57,39.963,3.272,3.272,0,0,1-.339,4.564,3.155,3.155,0,0,1-4.5-.344,105.751,105.751,0,0,0-80.735-37.711h-61.2a105.753,105.753,0,0,0-80.736,37.711,3.16,3.16,0,0,1-2.418,1.127Z" transform="translate(-109.252 -28)" fill="#ff7869"/></g><g transform="translate(96.706 310.529)"><path d="M225.337,443.437c-46.61,0-90.2-21.2-119.586-58.163a3.27,3.27,0,0,1,.478-4.551,3.154,3.154,0,0,1,4.482.485c28.172,35.434,69.951,55.756,114.626,55.756s86.451-20.322,114.623-55.753a3.155,3.155,0,0,1,4.482-.485,3.271,3.271,0,0,1,.478,4.551C315.533,422.238,271.946,443.437,225.337,443.437Z" transform="translate(-105.043 -380.004)" fill="#ff7869"/></g><g transform="translate(79.3 62.606)"><path d="M220.9,368.773c-76.05,0-137.7-62.6-137.7-139.819V213.419C83.2,136.2,144.85,73.6,220.9,73.6s137.7,62.6,137.7,139.819v15.535c0,77.22-61.65,139.819-137.7,139.819Z" transform="translate(-83.2 -73.6)" fill="#56525c"/></g><g transform="translate(85.662 233.496)"><path d="M353.859,311.38A105.806,105.806,0,0,0,222.522,304.3,105.806,105.806,0,0,0,91.184,311.38c17.6,56.637,69.743,97.7,131.338,97.7S336.26,368.017,353.859,311.38Z" transform="translate(-91.184 -284.8)" fill="#ff7869"/></g><g transform="translate(114.374 62.606)"><path d="M127.214,120.206H332.466a136.293,136.293,0,0,0-205.252,0Z" transform="translate(-127.214 -73.6)" fill="#fff"/></g><g transform="translate(114.374 311.173)"><path d="M332.466,380.8H127.214a136.294,136.294,0,0,0,205.252,0Z" transform="translate(-127.214 -380.8)" fill="#fff"/></g></g><text transform="translate(207 440)" fill="#fff" font-size="100" font-family="Poppins-Bold, Poppins" font-weight="700"><tspan x="-100.3" y="0">404</tspan></text><text transform="translate(207 563)" fill="#09aac8" font-size="16" font-family="Poppins-Bold, Poppins" font-weight="700"><tspan x="-25.4" y="0">Voltar</tspan></text></g></svg>