<svg xmlns="http://www.w3.org/2000/svg" width="68" height="68" viewBox="0 0 68 68"><g transform="translate(-86 -964)"><circle cx="34" cy="34" r="34" transform="translate(86 964)" fill="#f16165"/><g transform="translate(98.755 977.908)"><path d="M253.712,115.752h0a7.878,7.878,0,1,0,10.653,3.262A7.889,7.889,0,0,0,253.711,115.752Zm6.779,12.764a6.575,6.575,0,1,1,2.722-8.89A6.535,6.535,0,0,1,260.491,128.516Z" transform="translate(-227.848 -106.934)" fill="#fff"/><path d="M294.843,154.959h-1.178v-1.178a1.434,1.434,0,0,0-1.432-1.432H291.09a1.434,1.434,0,0,0-1.432,1.432v1.178H288.48a1.436,1.436,0,0,0-1.435,1.435v1.14a1.436,1.436,0,0,0,1.435,1.435h1.178v1.178a1.435,1.435,0,0,0,1.432,1.435h1.143a1.435,1.435,0,0,0,1.432-1.435v-1.178h1.178a1.436,1.436,0,0,0,1.435-1.435v-1.14A1.436,1.436,0,0,0,294.843,154.959Zm.131,2.575a.133.133,0,0,1-.131.131h-1.83a.652.652,0,0,0-.652.652v1.83a.133.133,0,0,1-.129.131H291.09a.132.132,0,0,1-.129-.131v-1.83a.652.652,0,0,0-.652-.652h-1.83a.133.133,0,0,1-.131-.131v-1.14a.133.133,0,0,1,.131-.131h1.83a.652.652,0,0,0,.652-.652v-1.83a.131.131,0,0,1,.129-.129h1.143a.132.132,0,0,1,.129.129v1.83a.652.652,0,0,0,.652.652h1.83a.133.133,0,0,1,.131.131Z" transform="translate(-262.102 -141.19)" fill="#fff"/><path d="M44.02,58.343l-2.155-4.052,0-.007,0-.006-1.176-2.213a1.33,1.33,0,0,0-1.8-.553l-.489.26L36.4,48.024A10.672,10.672,0,0,0,39.3,44.306a10.862,10.862,0,0,0,.85-6.593.652.652,0,1,0-1.281.241,9.477,9.477,0,0,1-9.875,11.2.639.639,0,0,0-.088-.009h-.033a9.549,9.549,0,0,1-2.085-.394,9.47,9.47,0,1,1,11.136-13.5.652.652,0,1,0,1.151-.611A10.7,10.7,0,0,0,32.714,29.4l-.042-.012a7.985,7.985,0,0,0-4.884-4.8,14.092,14.092,0,0,0-8.778.084c-.62.179-1.079.349-1.448.485a3.175,3.175,0,0,1-.92.262,3.168,3.168,0,0,1-.916-.261c-.369-.137-.828-.306-1.448-.486a14.309,14.309,0,0,0-8.536-.17.652.652,0,0,0,.418,1.234,13.037,13.037,0,0,1,7.754.187c.576.167,1.01.327,1.36.457a3.91,3.91,0,0,0,1.369.342,3.921,3.921,0,0,0,1.373-.343c.349-.129.783-.29,1.36-.456,5.444-1.592,9.893-.365,11.716,3.116A10.774,10.774,0,0,0,26.4,50a10.9,10.9,0,0,0,1.818.39,19.317,19.317,0,0,1-.887,5.769c-.709,1.873-1.807,2.745-3.455,2.745a3.627,3.627,0,0,1-3.588-2.662,24.241,24.241,0,0,1-1.131-6.3c-.055-.574-.111-1.169-.175-1.733a7.2,7.2,0,0,0-.773-2.815,1.713,1.713,0,0,0-3.138,0A7.2,7.2,0,0,0,14.3,48.21c-.063.564-.12,1.158-.175,1.733A24.24,24.24,0,0,1,13,56.243a3.626,3.626,0,0,1-3.587,2.662c-1.909,0-3.108-1.19-3.771-3.743a33.035,33.035,0,0,1-.608-7.745,18.444,18.444,0,0,0-2.051-7.991A18.649,18.649,0,0,1,1.563,35.5c-.722-3.66.082-6.672,2.262-8.481a.652.652,0,1,0-.832-1C.428,28.14-.534,31.6.284,35.748a19.629,19.629,0,0,0,1.5,4.208,17.125,17.125,0,0,1,1.938,7.461,33.966,33.966,0,0,0,.65,8.072c.813,3.131,2.506,4.719,5.032,4.719a4.911,4.911,0,0,0,4.8-3.48,25.09,25.09,0,0,0,1.219-6.662c.057-.6.11-1.158.173-1.71.24-2.122.789-2.683,1.045-2.683.277,0,.809.565,1.048,2.682.062.553.116,1.115.173,1.711a25.089,25.089,0,0,0,1.219,6.662,4.911,4.911,0,0,0,4.8,3.48c2.2,0,3.773-1.207,4.674-3.586a20.047,20.047,0,0,0,.969-6.144h.051a10.643,10.643,0,0,0,3.044-.446l1.992,3.751-.489.26h0a1.329,1.329,0,0,0-.546,1.795l1.179,2.218,0,.006,0,0,2.155,4.054a4,4,0,0,0,2.378,1.956,4.062,4.062,0,0,0,1.187.179,4.024,4.024,0,0,0,3.543-5.915Zm-4.525-5.68a.026.026,0,0,1,.02,0,.021.021,0,0,1,.015.012l.875,1.646L35.6,56.877l-.877-1.651a.018.018,0,0,1,0-.015.027.027,0,0,1,.013-.017Zm-5.642-3.082c.256-.112.51-.233.759-.365s.49-.273.725-.422l1.906,3.59-1.483.789Zm7.891,13.055a2.731,2.731,0,0,1-3.681-1.125l-1.852-3.484,4.806-2.556,1.852,3.483A2.725,2.725,0,0,1,41.744,62.637Z" transform="translate(0 -23.926)" fill="#fff"/></g></g></svg>