<svg xmlns="http://www.w3.org/2000/svg" width="65.377" height="77.849" viewBox="0 0 65.377 77.849"><path d="M85.31,53.562l-18.3-12.674h-.017V34.264h6.237a6.846,6.846,0,0,0,6.42,5.043,7.066,7.066,0,0,0,6.758-7.324,7.066,7.066,0,0,0-6.758-7.324,6.846,6.846,0,0,0-6.42,5.043H66.991V6.756A6.518,6.518,0,0,0,60.757,0,6.042,6.042,0,0,0,56.3,2.037l-5.261,5.84A9.073,9.073,0,0,0,39.118,9.323l-3.464,3.754L49.245,27.806l3.464-3.754a11.1,11.1,0,0,0,1.31-12.957l5.289-5.871a1.962,1.962,0,0,1,1.449-.662,2.117,2.117,0,0,1,2.025,2.195V40.888H47.935l-13.548-14.7a6.373,6.373,0,0,0-4.711-2.119h0a6.372,6.372,0,0,0-4.709,2.112,7.657,7.657,0,0,0-.006,10.214L42.409,55.333h5.805v8.744H45.636l-4.531,9.21H35.728v4.561h37.88V73.287H68.23L63.7,64.077H61.121V55.333h1.992l15.021,10.4a6.181,6.181,0,0,0,5.022.967,6.652,6.652,0,0,0,4.182-3.165A7.6,7.6,0,0,0,85.31,53.562ZM79.648,29.221A2.771,2.771,0,1,1,77.1,31.983,2.665,2.665,0,0,1,79.648,29.221Zm-29.915-8.4-.488.529-7.638-8.278.488-.529a5.117,5.117,0,0,1,7.638,0A6.213,6.213,0,0,1,49.733,20.826Zm11.44,47.812,2.287,4.649H45.875l2.287-4.649H61.173Zm-4.261-4.561h-4.49V55.333h4.49Zm26.878-3a2.451,2.451,0,0,1-1.541,1.166,2.285,2.285,0,0,1-1.85-.356L64.343,50.771H44.154l-16.22-17.6a2.824,2.824,0,0,1,0-3.763,2.326,2.326,0,0,1,3.472,0L46.19,45.45H65.778L83.044,57.406A2.8,2.8,0,0,1,83.79,61.08Z" transform="translate(-23.007)"/></svg>