<svg xmlns="http://www.w3.org/2000/svg" width="68" height="68" viewBox="0 0 68 68"><g transform="translate(-72 -830)"><circle cx="34" cy="34" r="34" transform="translate(72 830)" fill="#ffba05"/><g transform="translate(79.955 843.254)"><g transform="translate(9.729 12.16)"><path d="M97.621,156.272V156H96v.272c0,.465.012.929.036,1.391l1.62-.083C97.634,157.145,97.621,156.709,97.621,156.272Z" transform="translate(-96 -156)" fill="#fff"/></g><g transform="translate(9.902 15.311)"><path d="M99.323,187.088l-1.611.184a27.113,27.113,0,0,0,4.116,11.541l1.364-.877A25.5,25.5,0,0,1,99.323,187.088Z" transform="translate(-97.712 -187.088)" fill="#fff"/></g><g transform="translate(19.474 4.225)"><path d="M202.578,77.7a8.513,8.513,0,0,1-9.5,0l-.907,1.344a10.136,10.136,0,0,0,11.317,0Z" transform="translate(-192.168 -77.696)" fill="#fff"/></g><g transform="translate(0 27.564)"><g transform="translate(0 0)"><path d="M7.3,308H5.675A5.682,5.682,0,0,1,0,313.675V315.3a5.682,5.682,0,0,1,5.675,5.675H7.3a5.682,5.682,0,0,1,5.675-5.675v-1.621A5.682,5.682,0,0,1,7.3,308Zm-.811,9.643a7.332,7.332,0,0,0-3.158-3.158,7.332,7.332,0,0,0,3.158-3.158,7.332,7.332,0,0,0,3.158,3.158A7.332,7.332,0,0,0,6.486,317.643Z" transform="translate(0 -308)" fill="#fff"/></g></g><g transform="translate(6.486 0)"><g transform="translate(0 0)"><path d="M102.1,42.486h-1.553A10.355,10.355,0,0,0,91,36a9.918,9.918,0,0,0-5.467,1.572,5.287,5.287,0,0,1-5.769,0A9.914,9.914,0,0,0,74.294,36,10.306,10.306,0,0,0,64,46.294v2.138A30.19,30.19,0,0,0,68.805,64.79,28.582,28.582,0,0,1,72.5,73.327l.882,3.53a2.785,2.785,0,0,0,5.457-.262l1.818-12.127a2.014,2.014,0,0,1,3.983,0L86.456,76.6a2.786,2.786,0,0,0,5.458.262l.883-3.53a28.566,28.566,0,0,1,3.693-8.537,30.489,30.489,0,0,0,3.99-9.417c0,.028,0,.056,0,.084H102.1a5.682,5.682,0,0,1,5.675-5.675V48.161A5.682,5.682,0,0,1,102.1,42.486ZM95.125,63.913a30.2,30.2,0,0,0-3.9,9.022l-.884,3.53a1.163,1.163,0,0,1-2.28-.11L86.242,64.228a3.636,3.636,0,0,0-7.191,0L77.233,76.354a1.164,1.164,0,0,1-2.281.11l-.883-3.53a30.162,30.162,0,0,0-3.9-9.022,28.577,28.577,0,0,1-4.546-15.481V46.294a8.683,8.683,0,0,1,8.673-8.673,8.292,8.292,0,0,1,4.576,1.306,6.891,6.891,0,0,0,7.55,0A8.3,8.3,0,0,1,91,37.621a8.7,8.7,0,0,1,8.576,7.348l.034.528a5.672,5.672,0,0,1-4.8,2.663v1.621a5.667,5.667,0,0,1,4.617,2.388A28.805,28.805,0,0,1,95.125,63.913Zm6.168-11.784a7.332,7.332,0,0,0-3.158-3.158,7.332,7.332,0,0,0,3.158-3.158,7.332,7.332,0,0,0,3.158,3.158A7.332,7.332,0,0,0,101.293,52.129Z" transform="translate(-64 -36)" fill="#fff"/></g></g></g></g></svg>