<svg xmlns="http://www.w3.org/2000/svg" width="68" height="68" viewBox="0 0 68 68"><g transform="translate(-266 -994)"><path d="M34,0A34,34,0,1,1,0,34,34,34,0,0,1,34,0Z" transform="translate(266 994)" fill="#6b5be2"/><g transform="translate(286.939 1006.231)"><g transform="translate(0)"><path d="M115.374,0a6.71,6.71,0,0,0-2.657.546,9.327,9.327,0,0,1-7.316,0,6.748,6.748,0,0,0-9.4,6.2,18.347,18.347,0,0,0,1.9,8.106l1.034,3.495a.726.726,0,0,0,.7.517H101.8v3.628a.726.726,0,0,0,.726.726h2.177v1.689l-2.1-.233-.16,1.443,2.257.251v2.893l-2.1-.233-.16,1.443,2.257.251v2.893l-2.1-.233-.16,1.443,2.257.251v2.893l-2.1-.233-.16,1.443,2.305.256v.017l1.451,3.628a.726.726,0,0,0,.677.456h4.354a.726.726,0,0,0,.674-.456L113,40.351l2.508.279.16-1.443-2.254-.251V36.043l2.1.233.16-1.443-2.257-.251V31.69l2.1.233.16-1.443-2.257-.251V27.336l2.1.233.16-1.443-2.257-.251V23.22h2.177a.726.726,0,0,0,.726-.726V18.866h2.177a.725.725,0,0,0,.7-.52l1.034-3.495a18.347,18.347,0,0,0,1.9-8.1A6.753,6.753,0,0,0,115.374,0Zm-4.629,42.086h-3.369l-.988-2.467,5.119.569Zm1.219-3.31-5.8-.645V35.237l5.8.645Zm0-4.354-5.8-.645V30.884l5.8.645Zm0-4.354-5.8-.645V26.53l5.8.645Zm0-4.354-5.8-.645V23.22h5.8Zm2.9-3.946h-11.61v-2.9h11.61ZM118.9,14.26a.734.734,0,0,0-.046.118l-.9,3.036H100.17l-.9-3.036a.735.735,0,0,0-.046-.118,16.881,16.881,0,0,1-1.774-7.512,5.3,5.3,0,0,1,7.38-4.869,10.781,10.781,0,0,0,8.458,0,5.3,5.3,0,0,1,7.381,4.869A16.882,16.882,0,0,1,118.9,14.26Z" transform="translate(-96 0)" fill="#fff"/></g></g></g></svg>