<svg xmlns="http://www.w3.org/2000/svg" width="50" height="50" viewBox="0 0 50 50"><path d="M25,0A25,25,0,1,0,50,25,25,25,0,0,0,25,0ZM40.118,18.333q.018.443.018.888c0,10.679-8.126,21.725-21.725,21.725a21.64,21.64,0,0,1-11.7-3.431.184.184,0,0,1-.074-.218.187.187,0,0,1,.2-.121,15.114,15.114,0,0,0,1.784.1,14.909,14.909,0,0,0,8.886-2.9,7.753,7.753,0,0,1-6.732-5.36.185.185,0,0,1,.211-.238,7.443,7.443,0,0,0,2.578.037A7.78,7.78,0,0,1,8.1,21.414v-.1a.185.185,0,0,1,.093-.157.183.183,0,0,1,.182,0,7.413,7.413,0,0,0,2.706.875,7.763,7.763,0,0,1-1.87-9.967.184.184,0,0,1,.145-.091.181.181,0,0,1,.158.068A21.386,21.386,0,0,0,24.746,19.87a7.848,7.848,0,0,1-.149-1.527,7.76,7.76,0,0,1,13.346-5.382,14.952,14.952,0,0,0,4.65-1.794.185.185,0,0,1,.27.216,7.744,7.744,0,0,1-2.726,3.831,14.91,14.91,0,0,0,3.494-1.06.185.185,0,0,1,.229.273A15.458,15.458,0,0,1,40.118,18.333Z" fill="#fff"/></svg>