<svg xmlns="http://www.w3.org/2000/svg" width="50" height="50" viewBox="0 0 50 50"><g transform="translate(-1673.349 -1439.349)"><g transform="translate(1673.349 1439.349)"><path d="M306.618,129.309A1.309,1.309,0,1,1,305.309,128,1.309,1.309,0,0,1,306.618,129.309Zm0,0" transform="translate(-270.657 -113.961)" fill="#fff"/><path d="M112.842,96h-15.1A1.742,1.742,0,0,0,96,97.742v15.1a1.742,1.742,0,0,0,1.742,1.742h15.1a1.742,1.742,0,0,0,1.742-1.742v-15.1A1.742,1.742,0,0,0,112.842,96Zm-7.55,15.1a5.808,5.808,0,1,1,5.808-5.808A5.808,5.808,0,0,1,105.292,111.1Zm6.388-10.454a1.742,1.742,0,1,1,1.742-1.742A1.742,1.742,0,0,1,111.681,100.646Zm0,0" transform="translate(-80.292 -80.292)" fill="#fff"/><path d="M25,0A25,25,0,1,0,50,25,25,25,0,0,0,25,0ZM41.071,36.607a4.47,4.47,0,0,1-4.464,4.464H13.393a4.47,4.47,0,0,1-4.464-4.464V13.393a4.47,4.47,0,0,1,4.464-4.464H36.607a4.47,4.47,0,0,1,4.464,4.464Zm0,0" fill="#fff"/></g></g></svg>