<svg xmlns="http://www.w3.org/2000/svg" width="53.954" height="51.594" viewBox="0 0 53.954 51.594"><g transform="translate(-9 -4)"><g transform="translate(9 4)"><path d="M49.827,13.772A14.362,14.362,0,0,0,38.984,8.915c-3.279,0-6.816,1.951-9.4,3.376a15.275,15.275,0,0,1-2.607,1.276,15.134,15.134,0,0,1-2.6-1.273c-2.577-1.426-6.107-3.379-9.41-3.379A14.363,14.363,0,0,0,4.127,13.772,16.521,16.521,0,0,0,0,24.817C0,30.735,2.125,39.15,5.684,47.329a54.567,54.567,0,0,0,4.875,9.093c1.911,2.749,3.551,4.086,5.013,4.086.649,0,1.837-.275,2.5-2.119.648-1.792,1.231-3.849,1.849-6.031C21.561,46.585,23.6,39.4,26.874,39.4h.207c1.457,0,2.761,1.248,3.987,3.816a58.646,58.646,0,0,1,3.032,9.2c.591,2.165,1.149,4.209,1.776,5.969.653,1.833,1.828,2.107,2.471,2.107,1.455,0,3.094-1.357,5.009-4.148a56.467,56.467,0,0,0,4.885-9.184c3.577-8.245,5.713-16.6,5.713-22.343a16.52,16.52,0,0,0-4.128-11.045m-19.178.447c2.373-1.309,5.623-3.1,8.335-3.1,7.992,0,12.768,6.966,12.768,13.7,0,5.378-2.119,13.6-5.532,21.466A55.067,55.067,0,0,1,41.54,55.1c-1.732,2.525-2.853,3.258-3.192,3.192-.208-.041-.234-.189-.4-.644-.6-1.683-1.148-3.689-1.727-5.813a60.057,60.057,0,0,0-3.168-9.566c-1.629-3.411-3.583-5.069-5.975-5.069h-.207c-2.3,0-4.213,1.645-5.836,5.028a62.853,62.853,0,0,0-3.231,9.533c-.606,2.14-1.179,4.162-1.8,5.882-.137.38-.18.627-.433.666-.2.03-1.047-.036-3.2-3.14A53.152,53.152,0,0,1,7.7,46.45c-3.393-7.8-5.5-16.087-5.5-21.633,0-6.734,4.776-13.7,12.768-13.7a14.774,14.774,0,0,1,7.3,2.532c.366.233.881.629,1.38,1.012.2.153,1.971,1.129,2.9,1.676C26.948,16.571,30.218,14.457,30.649,14.22Z" transform="translate(0 -8.915)" fill="#fff"/></g></g></svg>