<svg xmlns="http://www.w3.org/2000/svg" width="190.563" height="50.327" viewBox="0 0 190.563 50.327"><g transform="translate(-14.437 -21.674)"><text transform="translate(75 53)" fill="#fff" font-size="18" font-family="Poppins-Light, Poppins" font-weight="300"><tspan x="0" y="0">CLINICAS SMILE</tspan></text><g transform="translate(14.437 12.759)"><path d="M48.6,13.653A14.01,14.01,0,0,0,38.027,8.915c-3.2,0-6.648,1.9-9.169,3.293a14.9,14.9,0,0,1-2.543,1.245,14.762,14.762,0,0,1-2.533-1.242c-2.514-1.391-5.957-3.3-9.179-3.3A14.011,14.011,0,0,0,4.026,13.653,16.116,16.116,0,0,0,0,24.427C0,30.2,2.073,38.408,5.545,46.386a53.227,53.227,0,0,0,4.755,8.87c1.864,2.682,3.463,3.985,4.89,3.985.633,0,1.792-.269,2.443-2.067.632-1.748,1.2-3.754,1.8-5.882,1.6-5.632,3.581-12.641,6.778-12.641h.2c1.421,0,2.694,1.217,3.889,3.722a57.206,57.206,0,0,1,2.957,8.974c.576,2.112,1.121,4.106,1.733,5.823.637,1.788,1.783,2.055,2.411,2.055,1.42,0,3.018-1.324,4.886-4.046a55.08,55.08,0,0,0,4.765-8.958c3.49-8.042,5.573-16.19,5.573-21.794A16.115,16.115,0,0,0,48.6,13.653M29.9,14.089c2.315-1.277,5.485-3.026,8.131-3.026,7.8,0,12.454,6.794,12.454,13.363,0,5.246-2.067,13.269-5.4,20.939a53.715,53.715,0,0,1-4.565,8.6c-1.69,2.463-2.783,3.178-3.114,3.113-.2-.04-.229-.184-.387-.628-.585-1.642-1.119-3.6-1.685-5.67a58.581,58.581,0,0,0-3.09-9.331c-1.589-3.327-3.5-4.945-5.828-4.945h-.2c-2.247,0-4.11,1.6-5.693,4.9a61.31,61.31,0,0,0-3.152,9.3c-.592,2.088-1.15,4.06-1.757,5.737-.134.37-.175.612-.422.65-.194.029-1.021-.035-3.126-3.063a51.847,51.847,0,0,1-4.549-8.5c-3.31-7.606-5.366-15.692-5.366-21.1,0-6.569,4.659-13.363,12.454-13.363a14.411,14.411,0,0,1,7.123,2.47c.357.227.86.613,1.346.987.194.149,1.923,1.1,2.828,1.635C26.286,16.383,29.476,14.321,29.9,14.089Z" transform="translate(0)" fill="#fff"/></g></g></svg>