<svg xmlns="http://www.w3.org/2000/svg" width="100.627" height="96.224" viewBox="0 0 100.627 96.224"><path d="M92.929,17.974A26.787,26.787,0,0,0,72.707,8.915c-6.116,0-12.712,3.639-17.531,6.3a28.488,28.488,0,0,1-4.863,2.38,28.225,28.225,0,0,1-4.843-2.375c-4.807-2.66-11.391-6.3-17.549-6.3A26.788,26.788,0,0,0,7.7,17.974,30.813,30.813,0,0,0,0,38.573C0,49.61,3.963,65.306,10.6,80.56a101.77,101.77,0,0,0,9.091,16.96c3.564,5.128,6.622,7.62,9.35,7.62,1.21,0,3.427-.513,4.671-3.953,1.209-3.342,2.3-7.178,3.448-11.247,3.051-10.768,6.847-24.17,12.959-24.17h.386c2.718,0,5.15,2.328,7.436,7.116C60.208,77.63,61.93,83.937,63.6,90.045c1.1,4.038,2.143,7.851,3.313,11.133,1.218,3.418,3.41,3.929,4.609,3.93,2.714,0,5.77-2.531,9.341-7.736a105.313,105.313,0,0,0,9.111-17.128c6.672-15.377,10.656-30.954,10.656-41.67a30.811,30.811,0,0,0-7.7-20.6m-35.768.834c4.426-2.442,10.487-5.786,15.546-5.786,14.905,0,23.813,12.991,23.813,25.551,0,10.031-3.953,25.371-10.317,40.035a102.7,102.7,0,0,1-8.729,16.439c-3.23,4.708-5.321,6.077-5.954,5.952-.389-.077-.437-.352-.739-1.2-1.119-3.139-2.14-6.88-3.222-10.841-1.713-6.275-3.484-12.763-5.909-17.841-3.038-6.362-6.683-9.454-11.143-9.454h-.386c-4.3,0-7.858,3.068-10.885,9.378-2.417,5.037-4.252,11.515-6.026,17.78-1.131,3.992-2.2,7.763-3.359,10.97-.256.708-.335,1.17-.808,1.242-.37.056-1.953-.066-5.977-5.857a99.132,99.132,0,0,1-8.7-16.254c-6.329-14.543-10.26-30-10.26-40.347,0-12.56,8.907-25.551,23.813-25.551,3.874,0,8.966,1.765,13.62,4.722.683.434,1.644,1.172,2.573,1.887.371.285,3.676,2.106,5.407,3.125C50.259,23.193,56.358,19.252,57.161,18.808Z" transform="translate(0 -8.915)" fill="#fff"/></svg>