<svg xmlns="http://www.w3.org/2000/svg" width="68" height="68" viewBox="0 0 68 68"><g transform="translate(-261 -811)"><circle cx="34" cy="34" r="34" transform="translate(261 811)" fill="#00c86f"/><g transform="translate(268.918 821.769)"><g transform="translate(9.298 16.003)"><path d="M85.375,137.131a.8.8,0,0,0-.854.742c-.877,12.443-4.588,27.47-7.855,27.475-.777-.325-1.533-4.62-2.033-7.461-1.059-6.01-2.154-12.224-5.6-12.236-2.884.012-4.007,5.631-5.2,11.579-.585,2.921-1.563,7.81-2.4,8.114-2.5,0-6.925-11.78-7.919-28.053a.8.8,0,0,0-1.6.1,110.837,110.837,0,0,0,2.783,18c1.936,7.779,4.138,11.561,6.733,11.561,1.992,0,2.768-3.4,3.97-9.4.77-3.848,2.057-10.286,3.629-10.293,2.1.007,3.256,6.57,4.021,10.913.931,5.287,1.546,8.78,3.583,8.78,6.175,0,9.045-22.841,9.476-28.958A.8.8,0,0,0,85.375,137.131Z" transform="translate(-51.921 -136.538)" fill="#fff"/></g><g transform="translate(9.227)"><path d="M76.106,0a9.971,9.971,0,0,0-4.143,1.277A8.726,8.726,0,0,1,68.5,2.4a8.724,8.724,0,0,1-3.459-1.123A9.972,9.972,0,0,0,60.9,0c-5.377,0-9.32,5.583-9.588,13.576a.8.8,0,0,0,.773.827h.027a.8.8,0,0,0,.8-.773C53.148,6.659,56.508,1.6,60.9,1.6a8.724,8.724,0,0,1,3.459,1.123A9.97,9.97,0,0,0,68.5,4a9.971,9.971,0,0,0,4.143-1.277A8.726,8.726,0,0,1,76.106,1.6c4.362,0,7.642,4.809,7.975,11.694a.817.817,0,0,0,.839.761.8.8,0,0,0,.76-.838C85.3,5.435,81.366,0,76.106,0Z" transform="translate(-51.315)" fill="#fff"/></g><g transform="translate(16.441 8.828)"><path d="M132.043,75.319h-18.4a.774.774,0,0,0-.774.774v11.2a.774.774,0,0,0,.774.774h18.4a.774.774,0,0,0,.774-.774v-11.2A.774.774,0,0,0,132.043,75.319Zm-.773,11.2H114.413V76.866H131.27Z" transform="translate(-112.866 -75.319)" fill="#fff"/></g><g transform="translate(3.639 12.829)"><path d="M17.215,109.452H4.413a.774.774,0,0,0-.774.774v3.2a.774.774,0,0,0,.774.774h12.8a.774.774,0,0,0,.774-.774v-3.2A.774.774,0,0,0,17.215,109.452Zm-.773,3.2H5.186V111H16.442v1.653Z" transform="translate(-3.639 -109.452)" fill="#fff"/></g><g transform="translate(34.845 12.829)"><path d="M283.455,109.452h-12.8a.774.774,0,0,0-.774.774v3.2a.774.774,0,0,0,.774.774h12.8a.774.774,0,0,0,.774-.774v-3.2A.774.774,0,0,0,283.455,109.452Zm-.773,3.2H271.427V111h11.255Z" transform="translate(-269.879 -109.452)" fill="#fff"/></g><g transform="translate(20.416 11.202)"><path d="M149.974,95.573h-2.4a.8.8,0,0,0-.8.8v6.4a.8.8,0,0,0,.8.8h2.4a.8.8,0,0,0,.8-.8v-6.4A.8.8,0,0,0,149.974,95.573Zm-.8,6.4h-.8v-4.8h.8Z" transform="translate(-146.773 -95.573)" fill="#fff"/></g><g transform="translate(27.617 11.202)"><path d="M211.414,95.573h-2.4a.8.8,0,0,0-.8.8v6.4a.8.8,0,0,0,.8.8h2.4a.8.8,0,0,0,.8-.8v-6.4A.8.8,0,0,0,211.414,95.573Zm-.8,6.4h-.8v-4.8h.8Z" transform="translate(-208.213 -95.573)" fill="#fff"/></g><g transform="translate(30.017 14.403)"><path d="M234.294,122.88h-4.8a.8.8,0,0,0,0,1.6h4.8a.8.8,0,0,0,0-1.6Z" transform="translate(-228.693 -122.88)" fill="#fff"/></g><g transform="translate(22.816 14.403)"><path d="M172.854,122.88h-4.8a.8.8,0,0,0,0,1.6h4.8a.8.8,0,1,0,0-1.6Z" transform="translate(-167.253 -122.88)" fill="#fff"/></g><g transform="translate(16.415 14.403)"><path d="M116.64,122.88h-3.2a.8.8,0,0,0,0,1.6h3.2a.8.8,0,0,0,0-1.6Z" transform="translate(-112.639 -122.88)" fill="#fff"/></g></g></g></svg>