<svg xmlns="http://www.w3.org/2000/svg" width="73.952" height="70.716" viewBox="0 0 73.952 70.716"><path d="M68.294,15.573A19.686,19.686,0,0,0,53.433,8.915c-4.494,0-9.342,2.674-12.884,4.628a20.937,20.937,0,0,1-3.574,1.749,20.743,20.743,0,0,1-3.559-1.745c-3.533-1.955-8.371-4.632-12.9-4.632A19.687,19.687,0,0,0,5.657,15.573,22.645,22.645,0,0,0,0,30.711c0,8.111,2.913,19.646,7.791,30.856a74.792,74.792,0,0,0,6.681,12.464c2.619,3.769,4.867,5.6,6.871,5.6.89,0,2.519-.377,3.432-2.9.888-2.456,1.687-5.275,2.534-8.266C29.552,60.547,32.342,50.7,36.834,50.7h.284c2,0,3.785,1.711,5.465,5.23a80.382,80.382,0,0,1,4.155,12.61c.81,2.967,1.575,5.769,2.435,8.182.9,2.512,2.506,2.888,3.387,2.888,1.995,0,4.24-1.86,6.865-5.685a77.4,77.4,0,0,0,6.7-12.587c4.9-11.3,7.831-22.749,7.831-30.624a22.643,22.643,0,0,0-5.658-15.138m-26.286.613c3.253-1.794,7.707-4.252,11.425-4.252,10.954,0,17.5,9.547,17.5,18.777,0,7.372-2.905,18.645-7.582,29.422a75.478,75.478,0,0,1-6.415,12.081c-2.374,3.46-3.91,4.466-4.376,4.374-.286-.056-.321-.259-.543-.883-.822-2.307-1.573-5.056-2.368-7.967a82.315,82.315,0,0,0-4.342-13.112c-2.232-4.675-4.911-6.948-8.189-6.948h-.284c-3.158,0-5.775,2.254-8,6.892a86.149,86.149,0,0,0-4.429,13.067c-.831,2.934-1.616,5.7-2.468,8.062-.188.52-.246.86-.594.913-.272.041-1.435-.049-4.392-4.3a72.852,72.852,0,0,1-6.392-11.945c-4.651-10.688-7.54-22.049-7.54-29.651,0-9.23,6.546-18.777,17.5-18.777,2.847,0,6.589,1.3,10.009,3.471.5.319,1.208.862,1.891,1.387.273.21,2.7,1.548,3.974,2.3C36.936,19.408,41.418,16.512,42.008,16.186Z" transform="translate(0 -8.915)" fill="#fff"/></svg>